{
 "cells": [
  {
   "cell_type": "code",
   "execution_count": 12,
   "metadata": {},
   "outputs": [],
   "source": [
    "# !pip3 install numpy\n",
    "# !pip3 install matplotlib\n",
    "# !pip3 install scipy\n",
    "# !pip3 install tensorflow_datasets\n",
    "# !pip3 install opencv-python\n",
    "# !pip3 install h5py\n",
    "# !pip3 install tensorflow\n",
    "# !pip3 install pandas\n",
    "# !pip3 install black\n",
    "# !pip3 install nbqa"
   ]
  },
  {
   "cell_type": "code",
   "execution_count": 13,
   "metadata": {},
   "outputs": [],
   "source": [
    "import subprocess\n",
    "import json\n",
    "import glob"
   ]
  },
  {
   "cell_type": "code",
   "execution_count": 14,
   "metadata": {},
   "outputs": [],
   "source": [
    "import numpy as np\n",
    "import matplotlib.pyplot as plt\n",
    "from scipy.spatial.transform import Rotation as R\n",
    "from PIL import Image\n",
    "from IPython import display\n",
    "import tensorflow_datasets as tfds\n",
    "import cv2\n",
    "import h5py\n",
    "import tensorflow as tf\n",
    "import pandas as pd\n",
    "import os"
   ]
  },
  {
   "cell_type": "code",
   "execution_count": null,
   "metadata": {},
   "outputs": [],
   "source": []
  },
  {
   "cell_type": "code",
   "execution_count": 15,
   "metadata": {},
   "outputs": [],
   "source": [
    "tf.data.experimental.enable_debug_mode()\n",
    "tf.config.run_functions_eagerly(True)"
   ]
  },
  {
   "cell_type": "code",
   "execution_count": 16,
   "metadata": {},
   "outputs": [
    {
     "name": "stdout",
     "output_type": "stream",
     "text": [
      "FeaturesDict({\n",
      "    'episode_metadata': FeaturesDict({\n",
      "        'file_path': string,\n",
      "        'recording_folderpath': string,\n",
      "    }),\n",
      "    'steps': Dataset({\n",
      "        'action': Tensor(shape=(7,), dtype=float64),\n",
      "        'action_dict': FeaturesDict({\n",
      "            'cartesian_position': Tensor(shape=(6,), dtype=float64),\n",
      "            'cartesian_velocity': Tensor(shape=(6,), dtype=float64),\n",
      "            'gripper_position': Tensor(shape=(1,), dtype=float64),\n",
      "            'gripper_velocity': Tensor(shape=(1,), dtype=float64),\n",
      "            'joint_position': Tensor(shape=(7,), dtype=float64),\n",
      "            'joint_velocity': Tensor(shape=(7,), dtype=float64),\n",
      "        }),\n",
      "        'discount': Scalar(shape=(), dtype=float32),\n",
      "        'is_first': bool,\n",
      "        'is_last': bool,\n",
      "        'is_terminal': bool,\n",
      "        'language_instruction': string,\n",
      "        'language_instruction_2': string,\n",
      "        'language_instruction_3': string,\n",
      "        'observation': FeaturesDict({\n",
      "            'cartesian_position': Tensor(shape=(6,), dtype=float64),\n",
      "            'exterior_image_1_left': Image(shape=(180, 320, 3), dtype=uint8),\n",
      "            'exterior_image_2_left': Image(shape=(180, 320, 3), dtype=uint8),\n",
      "            'gripper_position': Tensor(shape=(1,), dtype=float64),\n",
      "            'joint_position': Tensor(shape=(7,), dtype=float64),\n",
      "            'wrist_image_left': Image(shape=(180, 320, 3), dtype=uint8),\n",
      "        }),\n",
      "        'reward': Scalar(shape=(), dtype=float32),\n",
      "    }),\n",
      "})\n"
     ]
    }
   ],
   "source": [
    "builder = tfds.builder_from_directory(builder_dir=\"../../data/droid_100/1.0.0/\")\n",
    "print(builder.info.features)"
   ]
  },
  {
   "cell_type": "code",
   "execution_count": 17,
   "metadata": {},
   "outputs": [],
   "source": [
    "def load_dataset(data, step_size=1):\n",
    "    return zip(*[(data[i][:3], data[i][3:]) for i in range(0, len(data), step_size)])"
   ]
  },
  {
   "cell_type": "code",
   "execution_count": 18,
   "metadata": {},
   "outputs": [],
   "source": [
    "def get_information(i):\n",
    "    return {\n",
    "        \"dataFolderName\": \"robot_data_example\",\n",
    "        \"startTime\": \"2024-09-21T10:00:00Z\",\n",
    "        \"endTime\": \"2024-09-21T12:00:00Z\",\n",
    "        \"robotEmbodiment\": \"ALOHA\",\n",
    "        \"robotSerialNumber\": \"RS123456\",\n",
    "        \"videoSamplingRate\": 10,\n",
    "        \"armSamplingRate\": 50,\n",
    "        \"sensorSamplingRate\": 60,\n",
    "        \"operatorName\": \"John Doe\",\n",
    "        \"taskDescription\": \"Sample Task\",\n",
    "        \"subtaskDescription\": \"Subtask Description\",\n",
    "        \"taskState\": \"SUCCESS\",\n",
    "        \"subtaskState\": \"SUCCESS\",\n",
    "        \"dataLength\": 0,\n",
    "        \"durationInSeconds\": 0,\n",
    "        \"cameras\": [\n",
    "            \"exterior_image_1_left\",\n",
    "            \"exterior_image_2_left\",\n",
    "            \"wrist_image_left\",\n",
    "        ],\n",
    "        \"joints\": [\"cartesian_position\"],\n",
    "    }"
   ]
  },
  {
   "cell_type": "code",
   "execution_count": 19,
   "metadata": {},
   "outputs": [
    {
     "name": "stderr",
     "output_type": "stream",
     "text": [
      "ffmpeg version 7.0.1 Copyright (c) 2000-2024 the FFmpeg developers\n",
      "  built with Apple clang version 15.0.0 (clang-1500.3.9.4)\n",
      "  configuration: --prefix=/opt/homebrew/Cellar/ffmpeg/7.0.1 --enable-shared --enable-pthreads --enable-version3 --cc=clang --host-cflags= --host-ldflags='-Wl,-ld_classic' --enable-ffplay --enable-gnutls --enable-gpl --enable-libaom --enable-libaribb24 --enable-libbluray --enable-libdav1d --enable-libharfbuzz --enable-libjxl --enable-libmp3lame --enable-libopus --enable-librav1e --enable-librist --enable-librubberband --enable-libsnappy --enable-libsrt --enable-libssh --enable-libsvtav1 --enable-libtesseract --enable-libtheora --enable-libvidstab --enable-libvmaf --enable-libvorbis --enable-libvpx --enable-libwebp --enable-libx264 --enable-libx265 --enable-libxml2 --enable-libxvid --enable-lzma --enable-libfontconfig --enable-libfreetype --enable-frei0r --enable-libass --enable-libopencore-amrnb --enable-libopencore-amrwb --enable-libopenjpeg --enable-libspeex --enable-libsoxr --enable-libzmq --enable-libzimg --disable-libjack --disable-indev=jack --enable-videotoolbox --enable-audiotoolbox --enable-neon\n",
      "  libavutil      59.  8.100 / 59.  8.100\n",
      "  libavcodec     61.  3.100 / 61.  3.100\n",
      "  libavformat    61.  1.100 / 61.  1.100\n",
      "  libavdevice    61.  1.100 / 61.  1.100\n",
      "  libavfilter    10.  1.100 / 10.  1.100\n",
      "  libswscale      8.  1.100 /  8.  1.100\n",
      "  libswresample   5.  1.100 /  5.  1.100\n",
      "  libpostproc    58.  1.100 / 58.  1.100\n",
      "Input #0, concat, from 'frame_list.txt':\n",
      "  Duration: N/A, start: 0.000000, bitrate: N/A\n",
      "  Stream #0:0: Video: webp, yuv420p(tv, bt470bg/unknown/unknown), 88x50, 25 fps, 25 tbr, 25 tbn\n",
      "Stream mapping:\n",
      "  Stream #0:0 -> #0:0 (webp (native) -> h264 (libx264))\n",
      "Press [q] to stop, [?] for help\n",
      "[concat @ 0x1577066d0] DTS -230584300921369 < 0 out of order\n",
      "DTS -230584300921369, next:40000 st:0 invalid dropping\n",
      "PTS -230584300921369, next:40000 invalid dropping st:0\n",
      "[concat @ 0x1577066d0] Impossible to open '../public/data/droid_00000000/images/wrist_image_left__image_00000200.webp'\n",
      "[in#0/concat @ 0x157706480] Error during demuxing: No such file or directory\n",
      "[libx264 @ 0x157709f20] using cpu capabilities: ARMv8 NEON\n",
      "[libx264 @ 0x157709f20] profile High, level 1.0, 4:2:0, 8-bit\n",
      "[libx264 @ 0x157709f20] 264 - core 164 r3108 31e19f9 - H.264/MPEG-4 AVC codec - Copyleft 2003-2023 - http://www.videolan.org/x264.html - options: cabac=1 ref=3 deblock=1:0:0 analyse=0x3:0x113 me=hex subme=7 psy=1 psy_rd=1.00:0.00 mixed_ref=1 me_range=16 chroma_me=1 trellis=1 8x8dct=1 cqm=0 deadzone=21,11 fast_pskip=1 chroma_qp_offset=-2 threads=2 lookahead_threads=1 sliced_threads=0 nr=0 decimate=1 interlaced=0 bluray_compat=0 constrained_intra=0 bframes=3 b_pyramid=2 b_adapt=1 b_bias=0 direct=1 weightb=1 open_gop=0 weightp=2 keyint=250 keyint_min=25 scenecut=40 intra_refresh=0 rc_lookahead=40 rc=crf mbtree=1 crf=23.0 qcomp=0.60 qpmin=0 qpmax=69 qpstep=4 ip_ratio=1.40 aq=1:1.00\n",
      "Output #0, mp4, to '../public/data/droid_00000000/video.mp4':\n",
      "  Metadata:\n",
      "    encoder         : Lavf61.1.100\n",
      "  Stream #0:0: Video: h264 (avc1 / 0x31637661), yuv420p(tv, bt470bg/unknown/unknown, progressive), 88x50, q=2-31, 25 fps, 12800 tbn\n",
      "      Metadata:\n",
      "        encoder         : Lavc61.3.100 libx264\n",
      "      Side data:\n",
      "        cpb: bitrate max/min/avg: 0/0/0 buffer size: 0 vbv_delay: N/A\n",
      "[mp4 @ 0x157708050] Starting second pass: moving the moov atom to the beginning of the file\n",
      "[out#0/mp4 @ 0x157708fa0] video:2KiB audio:0KiB subtitle:0KiB other streams:0KiB global headers:0KiB muxing overhead: 44.519833%\n",
      "frame=    2 fps=0.0 q=-1.0 Lsize=       3KiB time=00:00:00.08 bitrate= 276.9kbits/s speed=32.3x    \n",
      "[libx264 @ 0x157709f20] frame I:1     Avg QP:31.67  size:   684\n",
      "[libx264 @ 0x157709f20] frame P:1     Avg QP:31.04  size:   543\n",
      "[libx264 @ 0x157709f20] mb I  I16..4:  0.0%  0.0% 100.0%\n",
      "[libx264 @ 0x157709f20] mb P  I16..4:  0.0% 29.2% 70.8%  P16..4:  0.0%  0.0%  0.0%  0.0%  0.0%    skip: 0.0%\n",
      "[libx264 @ 0x157709f20] 8x8 transform intra:14.6%\n",
      "[libx264 @ 0x157709f20] coded y,uvDC,uvAC intra: 77.1% 91.7% 52.1%\n",
      "[libx264 @ 0x157709f20] i8 v,h,dc,ddl,ddr,vr,hd,vl,hu:  7% 43% 39%  4%  4%  0%  0%  4%  0%\n",
      "[libx264 @ 0x157709f20] i4 v,h,dc,ddl,ddr,vr,hd,vl,hu: 35% 25% 18%  5%  3%  3%  4%  4%  4%\n",
      "[libx264 @ 0x157709f20] i8c dc,h,v,p: 56% 21% 15%  8%\n",
      "[libx264 @ 0x157709f20] Weighted P-Frames: Y:100.0% UV:0.0%\n",
      "[libx264 @ 0x157709f20] kb/s:122.70\n",
      "ffmpeg version 7.0.1 Copyright (c) 2000-2024 the FFmpeg developers\n",
      "  built with Apple clang version 15.0.0 (clang-1500.3.9.4)\n",
      "  configuration: --prefix=/opt/homebrew/Cellar/ffmpeg/7.0.1 --enable-shared --enable-pthreads --enable-version3 --cc=clang --host-cflags= --host-ldflags='-Wl,-ld_classic' --enable-ffplay --enable-gnutls --enable-gpl --enable-libaom --enable-libaribb24 --enable-libbluray --enable-libdav1d --enable-libharfbuzz --enable-libjxl --enable-libmp3lame --enable-libopus --enable-librav1e --enable-librist --enable-librubberband --enable-libsnappy --enable-libsrt --enable-libssh --enable-libsvtav1 --enable-libtesseract --enable-libtheora --enable-libvidstab --enable-libvmaf --enable-libvorbis --enable-libvpx --enable-libwebp --enable-libx264 --enable-libx265 --enable-libxml2 --enable-libxvid --enable-lzma --enable-libfontconfig --enable-libfreetype --enable-frei0r --enable-libass --enable-libopencore-amrnb --enable-libopencore-amrwb --enable-libopenjpeg --enable-libspeex --enable-libsoxr --enable-libzmq --enable-libzimg --disable-libjack --disable-indev=jack --enable-videotoolbox --enable-audiotoolbox --enable-neon\n",
      "  libavutil      59.  8.100 / 59.  8.100\n",
      "  libavcodec     61.  3.100 / 61.  3.100\n",
      "  libavformat    61.  1.100 / 61.  1.100\n",
      "  libavdevice    61.  1.100 / 61.  1.100\n",
      "  libavfilter    10.  1.100 / 10.  1.100\n",
      "  libswscale      8.  1.100 /  8.  1.100\n",
      "  libswresample   5.  1.100 /  5.  1.100\n",
      "  libpostproc    58.  1.100 / 58.  1.100\n",
      "Input #0, concat, from 'frame_list.txt':\n",
      "  Duration: N/A, start: 0.000000, bitrate: N/A\n",
      "  Stream #0:0: Video: webp, yuv420p(tv, bt470bg/unknown/unknown), 88x50, 25 fps, 25 tbr, 25 tbn\n",
      "Stream mapping:\n",
      "  Stream #0:0 -> #0:0 (webp (native) -> h264 (libx264))\n",
      "Press [q] to stop, [?] for help\n",
      "[concat @ 0x122005ba0] DTS -230584300921369 < 0 out of order\n",
      "DTS -230584300921369, next:40000 st:0 invalid dropping\n",
      "PTS -230584300921369, next:40000 invalid dropping st:0\n",
      "[concat @ 0x122005ba0] Impossible to open '../public/data/droid_00000001/images/wrist_image_left__image_00000300.webp'\n",
      "[in#0/concat @ 0x122005940] Error during demuxing: No such file or directory\n",
      "[libx264 @ 0x122009360] using cpu capabilities: ARMv8 NEON\n",
      "[libx264 @ 0x122009360] profile High, level 1.0, 4:2:0, 8-bit\n",
      "[libx264 @ 0x122009360] 264 - core 164 r3108 31e19f9 - H.264/MPEG-4 AVC codec - Copyleft 2003-2023 - http://www.videolan.org/x264.html - options: cabac=1 ref=3 deblock=1:0:0 analyse=0x3:0x113 me=hex subme=7 psy=1 psy_rd=1.00:0.00 mixed_ref=1 me_range=16 chroma_me=1 trellis=1 8x8dct=1 cqm=0 deadzone=21,11 fast_pskip=1 chroma_qp_offset=-2 threads=2 lookahead_threads=1 sliced_threads=0 nr=0 decimate=1 interlaced=0 bluray_compat=0 constrained_intra=0 bframes=3 b_pyramid=2 b_adapt=1 b_bias=0 direct=1 weightb=1 open_gop=0 weightp=2 keyint=250 keyint_min=25 scenecut=40 intra_refresh=0 rc_lookahead=40 rc=crf mbtree=1 crf=23.0 qcomp=0.60 qpmin=0 qpmax=69 qpstep=4 ip_ratio=1.40 aq=1:1.00\n",
      "Output #0, mp4, to '../public/data/droid_00000001/video.mp4':\n",
      "  Metadata:\n",
      "    encoder         : Lavf61.1.100\n",
      "  Stream #0:0: Video: h264 (avc1 / 0x31637661), yuv420p(tv, bt470bg/unknown/unknown, progressive), 88x50, q=2-31, 25 fps, 12800 tbn\n",
      "      Metadata:\n",
      "        encoder         : Lavc61.3.100 libx264\n",
      "      Side data:\n",
      "        cpb: bitrate max/min/avg: 0/0/0 buffer size: 0 vbv_delay: N/A\n",
      "[mp4 @ 0x122007810] Starting second pass: moving the moov atom to the beginning of the file\n",
      "[out#0/mp4 @ 0x122007750] video:2KiB audio:0KiB subtitle:0KiB other streams:0KiB global headers:0KiB muxing overhead: 39.342105%\n",
      "frame=    3 fps=0.0 q=-1.0 Lsize=       3KiB time=00:00:00.04 bitrate= 635.4kbits/s speed=16.4x    \n",
      "[libx264 @ 0x122009360] frame I:1     Avg QP:30.96  size:   503\n",
      "[libx264 @ 0x122009360] frame P:1     Avg QP:31.79  size:   608\n",
      "[libx264 @ 0x122009360] frame B:1     Avg QP:31.04  size:   480\n",
      "[libx264 @ 0x122009360] consecutive B-frames: 33.3% 66.7%  0.0%  0.0%\n",
      "[libx264 @ 0x122009360] mb I  I16..4:  4.2%  8.3% 87.5%\n",
      "[libx264 @ 0x122009360] mb P  I16..4:  4.2%  4.2% 79.2%  P16..4:  8.3%  0.0%  4.2%  0.0%  0.0%    skip: 0.0%\n",
      "[libx264 @ 0x122009360] mb B  I16..4:  4.2% 20.8% 75.0%  B16..8:  0.0%  0.0%  0.0%  direct: 0.0%  skip: 0.0%\n",
      "[libx264 @ 0x122009360] 8x8 transform intra:11.6% inter:0.0%\n",
      "[libx264 @ 0x122009360] coded y,uvDC,uvAC intra: 72.8% 72.5% 33.3% inter: 83.3% 66.7% 0.0%\n",
      "[libx264 @ 0x122009360] i16 v,h,dc,p: 33% 33%  0% 33%\n",
      "[libx264 @ 0x122009360] i8 v,h,dc,ddl,ddr,vr,hd,vl,hu: 28% 19% 28%  0%  3%  6%  6%  0%  9%\n",
      "[libx264 @ 0x122009360] i4 v,h,dc,ddl,ddr,vr,hd,vl,hu: 32% 23% 21%  4%  3%  3%  3%  7%  4%\n",
      "[libx264 @ 0x122009360] i8c dc,h,v,p: 75% 13% 12%  0%\n",
      "[libx264 @ 0x122009360] Weighted P-Frames: Y:100.0% UV:0.0%\n",
      "[libx264 @ 0x122009360] kb/s:106.07\n",
      "ffmpeg version 7.0.1 Copyright (c) 2000-2024 the FFmpeg developers\n",
      "  built with Apple clang version 15.0.0 (clang-1500.3.9.4)\n",
      "  configuration: --prefix=/opt/homebrew/Cellar/ffmpeg/7.0.1 --enable-shared --enable-pthreads --enable-version3 --cc=clang --host-cflags= --host-ldflags='-Wl,-ld_classic' --enable-ffplay --enable-gnutls --enable-gpl --enable-libaom --enable-libaribb24 --enable-libbluray --enable-libdav1d --enable-libharfbuzz --enable-libjxl --enable-libmp3lame --enable-libopus --enable-librav1e --enable-librist --enable-librubberband --enable-libsnappy --enable-libsrt --enable-libssh --enable-libsvtav1 --enable-libtesseract --enable-libtheora --enable-libvidstab --enable-libvmaf --enable-libvorbis --enable-libvpx --enable-libwebp --enable-libx264 --enable-libx265 --enable-libxml2 --enable-libxvid --enable-lzma --enable-libfontconfig --enable-libfreetype --enable-frei0r --enable-libass --enable-libopencore-amrnb --enable-libopencore-amrwb --enable-libopenjpeg --enable-libspeex --enable-libsoxr --enable-libzmq --enable-libzimg --disable-libjack --disable-indev=jack --enable-videotoolbox --enable-audiotoolbox --enable-neon\n",
      "  libavutil      59.  8.100 / 59.  8.100\n",
      "  libavcodec     61.  3.100 / 61.  3.100\n",
      "  libavformat    61.  1.100 / 61.  1.100\n",
      "  libavdevice    61.  1.100 / 61.  1.100\n",
      "  libavfilter    10.  1.100 / 10.  1.100\n",
      "  libswscale      8.  1.100 /  8.  1.100\n",
      "  libswresample   5.  1.100 /  5.  1.100\n",
      "  libpostproc    58.  1.100 / 58.  1.100\n",
      "Input #0, concat, from 'frame_list.txt':\n",
      "  Duration: N/A, start: 0.000000, bitrate: N/A\n",
      "  Stream #0:0: Video: webp, yuv420p(tv, bt470bg/unknown/unknown), 88x50, 25 fps, 25 tbr, 25 tbn\n",
      "Stream mapping:\n",
      "  Stream #0:0 -> #0:0 (webp (native) -> h264 (libx264))\n",
      "Press [q] to stop, [?] for help\n",
      "[concat @ 0x123805ba0] DTS -230584300921369 < 0 out of order\n",
      "DTS -230584300921369, next:40000 st:0 invalid dropping\n",
      "PTS -230584300921369, next:40000 invalid dropping st:0\n",
      "[concat @ 0x123805ba0] Impossible to open '../public/data/droid_00000002/images/wrist_image_left__image_00000200.webp'\n",
      "[in#0/concat @ 0x123805940] Error during demuxing: No such file or directory\n",
      "[libx264 @ 0x123809410] using cpu capabilities: ARMv8 NEON\n",
      "[libx264 @ 0x123809410] profile High, level 1.0, 4:2:0, 8-bit\n",
      "[libx264 @ 0x123809410] 264 - core 164 r3108 31e19f9 - H.264/MPEG-4 AVC codec - Copyleft 2003-2023 - http://www.videolan.org/x264.html - options: cabac=1 ref=3 deblock=1:0:0 analyse=0x3:0x113 me=hex subme=7 psy=1 psy_rd=1.00:0.00 mixed_ref=1 me_range=16 chroma_me=1 trellis=1 8x8dct=1 cqm=0 deadzone=21,11 fast_pskip=1 chroma_qp_offset=-2 threads=2 lookahead_threads=1 sliced_threads=0 nr=0 decimate=1 interlaced=0 bluray_compat=0 constrained_intra=0 bframes=3 b_pyramid=2 b_adapt=1 b_bias=0 direct=1 weightb=1 open_gop=0 weightp=2 keyint=250 keyint_min=25 scenecut=40 intra_refresh=0 rc_lookahead=40 rc=crf mbtree=1 crf=23.0 qcomp=0.60 qpmin=0 qpmax=69 qpstep=4 ip_ratio=1.40 aq=1:1.00\n",
      "Output #0, mp4, to '../public/data/droid_00000002/video.mp4':\n",
      "  Metadata:\n",
      "    encoder         : Lavf61.1.100\n",
      "  Stream #0:0: Video: h264 (avc1 / 0x31637661), yuv420p(tv, bt470bg/unknown/unknown, progressive), 88x50, q=2-31, 25 fps, 12800 tbn\n",
      "      Metadata:\n",
      "        encoder         : Lavc61.3.100 libx264\n",
      "      Side data:\n",
      "        cpb: bitrate max/min/avg: 0/0/0 buffer size: 0 vbv_delay: N/A\n",
      "[mp4 @ 0x123807530] Starting second pass: moving the moov atom to the beginning of the file\n",
      "[out#0/mp4 @ 0x123808490] video:2KiB audio:0KiB subtitle:0KiB other streams:0KiB global headers:0KiB muxing overhead: 43.520408%\n",
      "frame=    2 fps=0.0 q=-1.0 Lsize=       3KiB time=00:00:00.08 bitrate= 281.3kbits/s speed=44.2x    \n",
      "[libx264 @ 0x123809410] frame I:1     Avg QP:31.38  size:   693\n",
      "[libx264 @ 0x123809410] frame P:1     Avg QP:30.96  size:   578\n",
      "[libx264 @ 0x123809410] mb I  I16..4:  4.2%  4.2% 91.7%\n",
      "[libx264 @ 0x123809410] mb P  I16..4:  8.3% 16.7% 75.0%  P16..4:  0.0%  0.0%  0.0%  0.0%  0.0%    skip: 0.0%\n",
      "[libx264 @ 0x123809410] 8x8 transform intra:10.4%\n",
      "[libx264 @ 0x123809410] coded y,uvDC,uvAC intra: 77.1% 93.8% 60.4%\n",
      "[libx264 @ 0x123809410] i16 v,h,dc,p: 33%  0% 67%  0%\n",
      "[libx264 @ 0x123809410] i8 v,h,dc,ddl,ddr,vr,hd,vl,hu:  0% 20% 35%  5% 10% 10%  0%  0% 20%\n",
      "[libx264 @ 0x123809410] i4 v,h,dc,ddl,ddr,vr,hd,vl,hu: 35% 18% 21%  5%  5%  3%  5%  3%  5%\n",
      "[libx264 @ 0x123809410] i8c dc,h,v,p: 73% 17%  8%  2%\n",
      "[libx264 @ 0x123809410] Weighted P-Frames: Y:0.0% UV:0.0%\n",
      "[libx264 @ 0x123809410] kb/s:127.10\n",
      "ffmpeg version 7.0.1 Copyright (c) 2000-2024 the FFmpeg developers\n",
      "  built with Apple clang version 15.0.0 (clang-1500.3.9.4)\n",
      "  configuration: --prefix=/opt/homebrew/Cellar/ffmpeg/7.0.1 --enable-shared --enable-pthreads --enable-version3 --cc=clang --host-cflags= --host-ldflags='-Wl,-ld_classic' --enable-ffplay --enable-gnutls --enable-gpl --enable-libaom --enable-libaribb24 --enable-libbluray --enable-libdav1d --enable-libharfbuzz --enable-libjxl --enable-libmp3lame --enable-libopus --enable-librav1e --enable-librist --enable-librubberband --enable-libsnappy --enable-libsrt --enable-libssh --enable-libsvtav1 --enable-libtesseract --enable-libtheora --enable-libvidstab --enable-libvmaf --enable-libvorbis --enable-libvpx --enable-libwebp --enable-libx264 --enable-libx265 --enable-libxml2 --enable-libxvid --enable-lzma --enable-libfontconfig --enable-libfreetype --enable-frei0r --enable-libass --enable-libopencore-amrnb --enable-libopencore-amrwb --enable-libopenjpeg --enable-libspeex --enable-libsoxr --enable-libzmq --enable-libzimg --disable-libjack --disable-indev=jack --enable-videotoolbox --enable-audiotoolbox --enable-neon\n",
      "  libavutil      59.  8.100 / 59.  8.100\n",
      "  libavcodec     61.  3.100 / 61.  3.100\n",
      "  libavformat    61.  1.100 / 61.  1.100\n",
      "  libavdevice    61.  1.100 / 61.  1.100\n",
      "  libavfilter    10.  1.100 / 10.  1.100\n",
      "  libswscale      8.  1.100 /  8.  1.100\n",
      "  libswresample   5.  1.100 /  5.  1.100\n",
      "  libpostproc    58.  1.100 / 58.  1.100\n",
      "Input #0, concat, from 'frame_list.txt':\n",
      "  Duration: N/A, start: 0.000000, bitrate: N/A\n",
      "  Stream #0:0: Video: webp, yuv420p(tv, bt470bg/unknown/unknown), 88x50, 25 fps, 25 tbr, 25 tbn\n",
      "Stream mapping:\n",
      "  Stream #0:0 -> #0:0 (webp (native) -> h264 (libx264))\n",
      "Press [q] to stop, [?] for help\n",
      "[concat @ 0x145e2cd40] DTS -230584300921369 < 0 out of order\n",
      "DTS -230584300921369, next:40000 st:0 invalid dropping\n",
      "PTS -230584300921369, next:40000 invalid dropping st:0\n",
      "[concat @ 0x145e2cd40] Impossible to open '../public/data/droid_00000003/images/wrist_image_left__image_00000300.webp'\n",
      "[in#0/concat @ 0x145e2caf0] Error during demuxing: No such file or directory\n",
      "[libx264 @ 0x145e30470] using cpu capabilities: ARMv8 NEON\n",
      "[libx264 @ 0x145e30470] profile High, level 1.0, 4:2:0, 8-bit\n",
      "[libx264 @ 0x145e30470] 264 - core 164 r3108 31e19f9 - H.264/MPEG-4 AVC codec - Copyleft 2003-2023 - http://www.videolan.org/x264.html - options: cabac=1 ref=3 deblock=1:0:0 analyse=0x3:0x113 me=hex subme=7 psy=1 psy_rd=1.00:0.00 mixed_ref=1 me_range=16 chroma_me=1 trellis=1 8x8dct=1 cqm=0 deadzone=21,11 fast_pskip=1 chroma_qp_offset=-2 threads=2 lookahead_threads=1 sliced_threads=0 nr=0 decimate=1 interlaced=0 bluray_compat=0 constrained_intra=0 bframes=3 b_pyramid=2 b_adapt=1 b_bias=0 direct=1 weightb=1 open_gop=0 weightp=2 keyint=250 keyint_min=25 scenecut=40 intra_refresh=0 rc_lookahead=40 rc=crf mbtree=1 crf=23.0 qcomp=0.60 qpmin=0 qpmax=69 qpstep=4 ip_ratio=1.40 aq=1:1.00\n",
      "Output #0, mp4, to '../public/data/droid_00000003/video.mp4':\n",
      "  Metadata:\n",
      "    encoder         : Lavf61.1.100\n",
      "  Stream #0:0: Video: h264 (avc1 / 0x31637661), yuv420p(tv, bt470bg/unknown/unknown, progressive), 88x50, q=2-31, 25 fps, 12800 tbn\n",
      "      Metadata:\n",
      "        encoder         : Lavc61.3.100 libx264\n",
      "      Side data:\n",
      "        cpb: bitrate max/min/avg: 0/0/0 buffer size: 0 vbv_delay: N/A\n",
      "[mp4 @ 0x145e2e940] Starting second pass: moving the moov atom to the beginning of the file\n",
      "[out#0/mp4 @ 0x145e2e880] video:2KiB audio:0KiB subtitle:0KiB other streams:0KiB global headers:0KiB muxing overhead: 41.146789%\n",
      "frame=    3 fps=0.0 q=-1.0 Lsize=       3KiB time=00:00:00.04 bitrate= 615.4kbits/s speed=17.3x    \n",
      "[libx264 @ 0x145e30470] frame I:1     Avg QP:32.46  size:   493\n",
      "[libx264 @ 0x145e30470] frame P:1     Avg QP:31.75  size:   466\n",
      "[libx264 @ 0x145e30470] frame B:1     Avg QP:31.25  size:   532\n",
      "[libx264 @ 0x145e30470] consecutive B-frames: 33.3% 66.7%  0.0%  0.0%\n",
      "[libx264 @ 0x145e30470] mb I  I16..4:  4.2%  8.3% 87.5%\n",
      "[libx264 @ 0x145e30470] mb P  I16..4:  4.2% 12.5% 66.7%  P16..4:  8.3%  0.0%  8.3%  0.0%  0.0%    skip: 0.0%\n",
      "[libx264 @ 0x145e30470] mb B  I16..4:  4.2% 12.5% 79.2%  B16..8:  0.0%  4.2%  0.0%  direct: 0.0%  skip: 0.0%  L0: 0.0% L1:100.0% BI: 0.0%\n",
      "[libx264 @ 0x145e30470] 8x8 transform intra:11.9% inter:50.0%\n",
      "[libx264 @ 0x145e30470] coded y,uvDC,uvAC intra: 76.9% 68.7% 25.4% inter: 55.0% 40.0% 0.0%\n",
      "[libx264 @ 0x145e30470] i16 v,h,dc,p:  0% 67% 33%  0%\n",
      "[libx264 @ 0x145e30470] i8 v,h,dc,ddl,ddr,vr,hd,vl,hu: 28% 38%  9%  3%  6%  3%  6%  3%  3%\n",
      "[libx264 @ 0x145e30470] i4 v,h,dc,ddl,ddr,vr,hd,vl,hu: 28% 32% 20%  3%  3%  6%  4%  1%  3%\n",
      "[libx264 @ 0x145e30470] i8c dc,h,v,p: 73% 19%  6%  1%\n",
      "[libx264 @ 0x145e30470] Weighted P-Frames: Y:0.0% UV:0.0%\n",
      "[libx264 @ 0x145e30470] kb/s:99.40\n",
      "ffmpeg version 7.0.1 Copyright (c) 2000-2024 the FFmpeg developers\n",
      "  built with Apple clang version 15.0.0 (clang-1500.3.9.4)\n",
      "  configuration: --prefix=/opt/homebrew/Cellar/ffmpeg/7.0.1 --enable-shared --enable-pthreads --enable-version3 --cc=clang --host-cflags= --host-ldflags='-Wl,-ld_classic' --enable-ffplay --enable-gnutls --enable-gpl --enable-libaom --enable-libaribb24 --enable-libbluray --enable-libdav1d --enable-libharfbuzz --enable-libjxl --enable-libmp3lame --enable-libopus --enable-librav1e --enable-librist --enable-librubberband --enable-libsnappy --enable-libsrt --enable-libssh --enable-libsvtav1 --enable-libtesseract --enable-libtheora --enable-libvidstab --enable-libvmaf --enable-libvorbis --enable-libvpx --enable-libwebp --enable-libx264 --enable-libx265 --enable-libxml2 --enable-libxvid --enable-lzma --enable-libfontconfig --enable-libfreetype --enable-frei0r --enable-libass --enable-libopencore-amrnb --enable-libopencore-amrwb --enable-libopenjpeg --enable-libspeex --enable-libsoxr --enable-libzmq --enable-libzimg --disable-libjack --disable-indev=jack --enable-videotoolbox --enable-audiotoolbox --enable-neon\n",
      "  libavutil      59.  8.100 / 59.  8.100\n",
      "  libavcodec     61.  3.100 / 61.  3.100\n",
      "  libavformat    61.  1.100 / 61.  1.100\n",
      "  libavdevice    61.  1.100 / 61.  1.100\n",
      "  libavfilter    10.  1.100 / 10.  1.100\n",
      "  libswscale      8.  1.100 /  8.  1.100\n",
      "  libswresample   5.  1.100 /  5.  1.100\n",
      "  libpostproc    58.  1.100 / 58.  1.100\n",
      "Input #0, concat, from 'frame_list.txt':\n",
      "  Duration: N/A, start: 0.000000, bitrate: N/A\n",
      "  Stream #0:0: Video: webp, yuv420p(tv, bt470bg/unknown/unknown), 88x50, 25 fps, 25 tbr, 25 tbn\n",
      "Stream mapping:\n",
      "  Stream #0:0 -> #0:0 (webp (native) -> h264 (libx264))\n",
      "Press [q] to stop, [?] for help\n",
      "[concat @ 0x12a005ba0] DTS -230584300921369 < 0 out of order\n",
      "DTS -230584300921369, next:40000 st:0 invalid dropping\n",
      "PTS -230584300921369, next:40000 invalid dropping st:0\n",
      "[concat @ 0x12a005ba0] Impossible to open '../public/data/droid_00000004/images/wrist_image_left__image_00000300.webp'\n",
      "[in#0/concat @ 0x12a005940] Error during demuxing: No such file or directory\n",
      "[libx264 @ 0x12a0092e0] using cpu capabilities: ARMv8 NEON\n",
      "[libx264 @ 0x12a0092e0] profile High, level 1.0, 4:2:0, 8-bit\n",
      "[libx264 @ 0x12a0092e0] 264 - core 164 r3108 31e19f9 - H.264/MPEG-4 AVC codec - Copyleft 2003-2023 - http://www.videolan.org/x264.html - options: cabac=1 ref=3 deblock=1:0:0 analyse=0x3:0x113 me=hex subme=7 psy=1 psy_rd=1.00:0.00 mixed_ref=1 me_range=16 chroma_me=1 trellis=1 8x8dct=1 cqm=0 deadzone=21,11 fast_pskip=1 chroma_qp_offset=-2 threads=2 lookahead_threads=1 sliced_threads=0 nr=0 decimate=1 interlaced=0 bluray_compat=0 constrained_intra=0 bframes=3 b_pyramid=2 b_adapt=1 b_bias=0 direct=1 weightb=1 open_gop=0 weightp=2 keyint=250 keyint_min=25 scenecut=40 intra_refresh=0 rc_lookahead=40 rc=crf mbtree=1 crf=23.0 qcomp=0.60 qpmin=0 qpmax=69 qpstep=4 ip_ratio=1.40 aq=1:1.00\n",
      "Output #0, mp4, to '../public/data/droid_00000004/video.mp4':\n",
      "  Metadata:\n",
      "    encoder         : Lavf61.1.100\n",
      "  Stream #0:0: Video: h264 (avc1 / 0x31637661), yuv420p(tv, bt470bg/unknown/unknown, progressive), 88x50, q=2-31, 25 fps, 12800 tbn\n",
      "      Metadata:\n",
      "        encoder         : Lavc61.3.100 libx264\n",
      "      Side data:\n",
      "        cpb: bitrate max/min/avg: 0/0/0 buffer size: 0 vbv_delay: N/A\n",
      "[mp4 @ 0x12a007530] Starting second pass: moving the moov atom to the beginning of the file\n",
      "[out#0/mp4 @ 0x12a007b50] video:2KiB audio:0KiB subtitle:0KiB other streams:0KiB global headers:0KiB muxing overhead: 48.776509%\n",
      "frame=    3 fps=0.0 q=-1.0 Lsize=       3KiB time=00:00:00.04 bitrate= 547.2kbits/s speed=  18x    \n",
      "[libx264 @ 0x12a0092e0] frame I:1     Avg QP:29.58  size:   412\n",
      "[libx264 @ 0x12a0092e0] frame P:1     Avg QP:31.25  size:   405\n",
      "[libx264 @ 0x12a0092e0] frame B:1     Avg QP:30.67  size:   333\n",
      "[libx264 @ 0x12a0092e0] consecutive B-frames: 33.3% 66.7%  0.0%  0.0%\n",
      "[libx264 @ 0x12a0092e0] mb I  I16..4: 16.7% 37.5% 45.8%\n",
      "[libx264 @ 0x12a0092e0] mb P  I16..4:  4.2% 20.8% 62.5%  P16..4:  0.0% 12.5%  0.0%  0.0%  0.0%    skip: 0.0%\n",
      "[libx264 @ 0x12a0092e0] mb B  I16..4:  0.0% 29.2% 41.7%  B16..8:  4.2% 16.7%  7.3%  direct: 0.0%  skip: 0.0%  L0:40.7% L1:37.0% BI:22.2%\n",
      "[libx264 @ 0x12a0092e0] 8x8 transform intra:33.9% inter:40.0%\n",
      "[libx264 @ 0x12a0092e0] coded y,uvDC,uvAC intra: 67.7% 43.5% 16.1% inter: 82.5% 20.0% 10.0%\n",
      "[libx264 @ 0x12a0092e0] i16 v,h,dc,p:  0% 60% 20% 20%\n",
      "[libx264 @ 0x12a0092e0] i8 v,h,dc,ddl,ddr,vr,hd,vl,hu: 18% 27% 36%  1%  1%  2%  4%  8%  2%\n",
      "[libx264 @ 0x12a0092e0] i4 v,h,dc,ddl,ddr,vr,hd,vl,hu: 37% 24% 18%  3%  3%  5%  3%  4%  2%\n",
      "[libx264 @ 0x12a0092e0] i8c dc,h,v,p: 73% 15% 13%  0%\n",
      "[libx264 @ 0x12a0092e0] Weighted P-Frames: Y:0.0% UV:0.0%\n",
      "[libx264 @ 0x12a0092e0] kb/s:76.67\n",
      "ffmpeg version 7.0.1 Copyright (c) 2000-2024 the FFmpeg developers\n",
      "  built with Apple clang version 15.0.0 (clang-1500.3.9.4)\n",
      "  configuration: --prefix=/opt/homebrew/Cellar/ffmpeg/7.0.1 --enable-shared --enable-pthreads --enable-version3 --cc=clang --host-cflags= --host-ldflags='-Wl,-ld_classic' --enable-ffplay --enable-gnutls --enable-gpl --enable-libaom --enable-libaribb24 --enable-libbluray --enable-libdav1d --enable-libharfbuzz --enable-libjxl --enable-libmp3lame --enable-libopus --enable-librav1e --enable-librist --enable-librubberband --enable-libsnappy --enable-libsrt --enable-libssh --enable-libsvtav1 --enable-libtesseract --enable-libtheora --enable-libvidstab --enable-libvmaf --enable-libvorbis --enable-libvpx --enable-libwebp --enable-libx264 --enable-libx265 --enable-libxml2 --enable-libxvid --enable-lzma --enable-libfontconfig --enable-libfreetype --enable-frei0r --enable-libass --enable-libopencore-amrnb --enable-libopencore-amrwb --enable-libopenjpeg --enable-libspeex --enable-libsoxr --enable-libzmq --enable-libzimg --disable-libjack --disable-indev=jack --enable-videotoolbox --enable-audiotoolbox --enable-neon\n",
      "  libavutil      59.  8.100 / 59.  8.100\n",
      "  libavcodec     61.  3.100 / 61.  3.100\n",
      "  libavformat    61.  1.100 / 61.  1.100\n",
      "  libavdevice    61.  1.100 / 61.  1.100\n",
      "  libavfilter    10.  1.100 / 10.  1.100\n",
      "  libswscale      8.  1.100 /  8.  1.100\n",
      "  libswresample   5.  1.100 /  5.  1.100\n",
      "  libpostproc    58.  1.100 / 58.  1.100\n",
      "Input #0, concat, from 'frame_list.txt':\n",
      "  Duration: N/A, start: 0.000000, bitrate: N/A\n",
      "  Stream #0:0: Video: webp, yuv420p(tv, bt470bg/unknown/unknown), 88x50, 25 fps, 25 tbr, 25 tbn\n",
      "Stream mapping:\n",
      "  Stream #0:0 -> #0:0 (webp (native) -> h264 (libx264))\n",
      "Press [q] to stop, [?] for help\n",
      "[concat @ 0x15b005ba0] Impossible to open '../public/data/droid_00000005/images/wrist_image_left__image_00000100.webp'\n",
      "[in#0/concat @ 0x15b005940] Error during demuxing: No such file or directory\n",
      "[libx264 @ 0x15b009340] using cpu capabilities: ARMv8 NEON\n",
      "[libx264 @ 0x15b009340] profile High, level 1.0, 4:2:0, 8-bit\n",
      "[libx264 @ 0x15b009340] 264 - core 164 r3108 31e19f9 - H.264/MPEG-4 AVC codec - Copyleft 2003-2023 - http://www.videolan.org/x264.html - options: cabac=1 ref=3 deblock=1:0:0 analyse=0x3:0x113 me=hex subme=7 psy=1 psy_rd=1.00:0.00 mixed_ref=1 me_range=16 chroma_me=1 trellis=1 8x8dct=1 cqm=0 deadzone=21,11 fast_pskip=1 chroma_qp_offset=-2 threads=2 lookahead_threads=1 sliced_threads=0 nr=0 decimate=1 interlaced=0 bluray_compat=0 constrained_intra=0 bframes=3 b_pyramid=2 b_adapt=1 b_bias=0 direct=1 weightb=1 open_gop=0 weightp=2 keyint=250 keyint_min=25 scenecut=40 intra_refresh=0 rc_lookahead=40 rc=crf mbtree=1 crf=23.0 qcomp=0.60 qpmin=0 qpmax=69 qpstep=4 ip_ratio=1.40 aq=1:1.00\n",
      "Output #0, mp4, to '../public/data/droid_00000005/video.mp4':\n",
      "  Metadata:\n",
      "    encoder         : Lavf61.1.100\n",
      "  Stream #0:0: Video: h264 (avc1 / 0x31637661), yuv420p(tv, bt470bg/unknown/unknown, progressive), 88x50, q=2-31, 25 fps, 12800 tbn\n",
      "      Metadata:\n",
      "        encoder         : Lavc61.3.100 libx264\n",
      "      Side data:\n",
      "        cpb: bitrate max/min/avg: 0/0/0 buffer size: 0 vbv_delay: N/A\n",
      "[mp4 @ 0x15b007810] Starting second pass: moving the moov atom to the beginning of the file\n",
      "[out#0/mp4 @ 0x15b007750] video:1KiB audio:0KiB subtitle:0KiB other streams:0KiB global headers:0KiB muxing overhead: 70.272572%\n",
      "frame=    1 fps=0.0 q=28.0 Lsize=       2KiB time=00:00:00.04 bitrate= 399.8kbits/s speed=33.4x    \n",
      "[libx264 @ 0x15b009340] frame I:1     Avg QP:30.38  size:   485\n",
      "[libx264 @ 0x15b009340] mb I  I16..4:  4.2% 33.3% 62.5%\n",
      "[libx264 @ 0x15b009340] 8x8 transform intra:33.3%\n",
      "[libx264 @ 0x15b009340] coded y,uvDC,uvAC intra: 75.0% 95.8% 54.2%\n",
      "[libx264 @ 0x15b009340] i16 v,h,dc,p: 100%  0%  0%  0%\n",
      "[libx264 @ 0x15b009340] i8 v,h,dc,ddl,ddr,vr,hd,vl,hu: 12% 31% 22%  6%  0%  6%  3%  9%  9%\n",
      "[libx264 @ 0x15b009340] i4 v,h,dc,ddl,ddr,vr,hd,vl,hu: 29% 25% 25%  3%  6%  2%  1%  4%  5%\n",
      "[libx264 @ 0x15b009340] i8c dc,h,v,p: 54% 21% 21%  4%\n",
      "[libx264 @ 0x15b009340] kb/s:97.00\n"
     ]
    }
   ],
   "source": [
    "# Load the dataset\n",
    "ds = tfds.load(\"droid_100\", data_dir=\"../../data\", split=\"train\")\n",
    "\n",
    "# Create an iterator\n",
    "ds_iter = iter(ds)\n",
    "\n",
    "for i in range(6):  # range(len(ds)):\n",
    "    data_folder = f\"../public/data/droid_{i:08d}\"\n",
    "    subprocess.call([\"mkdir\", \"-p\", data_folder])\n",
    "\n",
    "    # Save information\n",
    "    information = get_information(i)\n",
    "    information[\"dataFolderName\"] = f\"droid_{i:08d}\"\n",
    "    information[\"taskDescription\"] = f\"pick up an item\"\n",
    "    information[\"subtaskDescription\"] = f\"reach out and pick up an item\"\n",
    "\n",
    "    subprocess.call([\"mkdir\", \"-p\", f\"{data_folder}/trajectories\"])\n",
    "    images = {}\n",
    "    trajectories = {}\n",
    "    cat_pose = []\n",
    "    # Save Trajectory\n",
    "    episode = next(ds_iter)\n",
    "    for step in episode[\"steps\"]:\n",
    "        for joint in information[\"joints\"]:\n",
    "            if joint not in trajectories.keys():\n",
    "                trajectories[joint] = []\n",
    "            trajectories[joint].append(step[\"action_dict\"][joint].numpy())\n",
    "        for c in information[\"cameras\"]:\n",
    "            if c not in images.keys():\n",
    "                images[c] = []\n",
    "\n",
    "            img = Image.fromarray(\n",
    "                np.concatenate((step[\"observation\"][c].numpy(),), axis=1)\n",
    "            )\n",
    "\n",
    "            # Get the current width and height of the image\n",
    "            width, height = img.size\n",
    "\n",
    "            # Calculate the new width while keeping the aspect ratio\n",
    "            aspect_ratio = width / height\n",
    "            new_height = 50\n",
    "            new_width = int(new_height * aspect_ratio)\n",
    "\n",
    "            # Resize the image\n",
    "            resized_image = img.resize(\n",
    "                (new_width, new_height), Image.Resampling.LANCZOS\n",
    "            )\n",
    "\n",
    "            # Save or show the resized image\n",
    "            images[c].append(resized_image)\n",
    "\n",
    "    for joint in information[\"joints\"]:\n",
    "        df = pd.DataFrame(\n",
    "            trajectories[joint], columns=[\"x\", \"y\", \"z\", \"roll\", \"pitch\", \"yaw\"]\n",
    "        )\n",
    "        df.to_json(\n",
    "            f\"{data_folder}/trajectories/{joint}__trajectory.json\",\n",
    "            orient=\"records\",\n",
    "            index=False,\n",
    "        )\n",
    "\n",
    "    # Save Image\n",
    "    subprocess.call([\"mkdir\", \"-p\", f\"{data_folder}/images\"])\n",
    "    for c in information[\"cameras\"]:\n",
    "        for j, image in enumerate(images[c]):\n",
    "            # Save the image in WebP format\n",
    "            image.save(\n",
    "                f\"{data_folder}/images/{c}__image_{j:08d}.webp\",\n",
    "                format=\"WEBP\",\n",
    "                quality=15,\n",
    "            )\n",
    "        df_img = pd.DataFrame()\n",
    "        df_img[\"image\"] = [f\"{c}__image_{j:08d}.webp\" for j in range(len(df))]\n",
    "        df_img.to_json(\n",
    "            f\"{data_folder}/images/{c}__image.json\", orient=\"records\", index=False\n",
    "        )\n",
    "\n",
    "    # Define the directory containing the image sequence\n",
    "    output_video = f\"{data_folder}/video.mp4\"\n",
    "    c = information[\"cameras\"][-1]\n",
    "\n",
    "    frame_list_path = f\"frame_list.txt\"\n",
    "\n",
    "    # Create the frame list for every 100th image\n",
    "    with open(frame_list_path, \"w\") as f:\n",
    "        for i in range(0, 1000, 100):  # Adjust the range and step size as needed\n",
    "            f.write(f\"file '{data_folder}/images/{c}__image_{i:08d}.webp'\\n\")\n",
    "\n",
    "    ffmpeg_command = f\"ffmpeg -y -f concat -safe 0 -i {frame_list_path} -c:v libx264 -pix_fmt yuv420p -movflags +faststart '{data_folder}/video.mp4'\"\n",
    "\n",
    "    subprocess.call(\n",
    "        ffmpeg_command,\n",
    "        shell=True,\n",
    "    )\n",
    "\n",
    "    # ffmpeg_command = f\"ffmpeg -y -f concat -safe 0 -i {frame_list_path} -c:v libx264 -pix_fmt yuv420p '{data_folder}/video.mp4'\"\n",
    "\n",
    "    # Assuming 'information' is the data you want to write to the JSON file\n",
    "    information[\"dataLength\"] = len(df)\n",
    "    information[\"durationInSeconds\"] = (\n",
    "        f'{len(df) / information[\"videoSamplingRate\"]:.2f}'\n",
    "    )\n",
    "    with open(f\"{data_folder}/information.json\", \"w\") as json_file:\n",
    "        json.dump(\n",
    "            information, json_file, indent=2\n",
    "        )  # The indent argument is optional, for pretty formatting"
   ]
  },
  {
   "cell_type": "code",
   "execution_count": null,
   "metadata": {},
   "outputs": [],
   "source": []
  },
  {
   "cell_type": "code",
   "execution_count": 20,
   "metadata": {},
   "outputs": [],
   "source": [
    "def plain_format_action_dict(step):\n",
    "    formatted_action_dict = {}\n",
    "\n",
    "    for k, v in step.items():\n",
    "        try:\n",
    "            if isinstance(v, dict):\n",
    "                # If the value is a dictionary, recurse into it\n",
    "                formatted_action_dict[k] = plain_format_action_dict(v)\n",
    "            elif isinstance(v, tf.Tensor) and v.dtype == tf.string:\n",
    "                # If the value is a bytes (string in TensorFlow), decode it\n",
    "                formatted_action_dict[k] = v.numpy().decode(\"utf-8\")\n",
    "            elif isinstance(v, tf.Tensor):\n",
    "                # If the value is a Tensor, convert to a list\n",
    "                formatted_action_dict[k] = v.numpy().tolist()\n",
    "            else:\n",
    "                # Handle other data types directly (like int, float, bool)\n",
    "                formatted_action_dict[k] = v\n",
    "        except Exception as e:\n",
    "            print(f\"Error processing key '{k}': {e}\")\n",
    "\n",
    "    return json.dumps(formatted_action_dict)\n",
    "\n",
    "\n",
    "# Assuming `ds` is a dataset object with a proper iterator\n",
    "ds_iter = iter(ds)\n",
    "data_list = []\n",
    "\n",
    "for i in range(1):  # Adjust as needed\n",
    "    episode = next(ds_iter)\n",
    "    step_data_list = []\n",
    "    for step in episode[\"steps\"]:\n",
    "        step_data_list.append(step)\n",
    "    new_step_data_list = []\n",
    "    for step in step_data_list:  # Adjust as needed\n",
    "        new_step_data_list.append(plain_format_action_dict(step))"
   ]
  },
  {
   "cell_type": "code",
   "execution_count": 21,
   "metadata": {},
   "outputs": [],
   "source": [
    "data2_list = []"
   ]
  },
  {
   "cell_type": "code",
   "execution_count": 22,
   "metadata": {},
   "outputs": [
    {
     "data": {
      "text/plain": [
       "[]"
      ]
     },
     "execution_count": 22,
     "metadata": {},
     "output_type": "execute_result"
    }
   ],
   "source": [
    "data2_list"
   ]
  },
  {
   "cell_type": "code",
   "execution_count": null,
   "metadata": {},
   "outputs": [],
   "source": []
  }
 ],
 "metadata": {
  "kernelspec": {
   "display_name": "Python 3",
   "language": "python",
   "name": "python3"
  },
  "language_info": {
   "codemirror_mode": {
    "name": "ipython",
    "version": 3
   },
   "file_extension": ".py",
   "mimetype": "text/x-python",
   "name": "python",
   "nbconvert_exporter": "python",
   "pygments_lexer": "ipython3",
   "version": "3.11.9"
  }
 },
 "nbformat": 4,
 "nbformat_minor": 2
}
